<svg xmlns="http://www.w3.org/2000/svg" viewBox="-305.5 396.5 400 400" fill="#FFFFFF">
<path d="M-67.611,406.763c-46.483-0.467-98.938,12.292-137.7,53.934c-61.613,66.188-59.733,131.624-40.927,177.479
	c16.958,41.347,45.214,67.359,50.873,72.293c0.093,23.433,2.222,45.502,5.737,63.877c0.186,6.759,5.814,12.086,12.572,11.9
	c6.759-0.187,12.087-5.814,11.9-12.572c-0.037-1.339-0.293-2.662-0.758-3.918c-9.385-49.056-6.187-134.564,21.038-186.66
	c33.669-64.422,80.708-87.21,80.708-87.21c6.179-2.744,8.964-9.977,6.22-16.155c-2.192-4.938-7.362-7.854-12.722-7.177
	c-1.617,0.199-3.179,0.719-4.591,1.529c0,0-54.438,27.164-91.417,97.921c-16.018,30.649-24.154,67.896-27.158,104.422
	c-9.708-11.264-21.506-27.504-29.835-47.813c-16.169-39.423-19.896-91.063,36.337-151.471
	c32.953-35.397,77.788-46.319,119.723-45.899c36.273,0.363,67.532,10.01,86.063,18.359C3.712,476.354-2.752,507.075-7.94,537.959
	c-6.072,36.157-12.926,71.311-32.13,98.303c-35.843,50.369-104.422,54.314-104.422,54.314c-6.76,0.316-11.983,6.054-11.667,12.813
	c0.317,6.761,6.054,11.982,12.814,11.666c0,0,79.275-2.967,123.164-64.643C3.2,617.552,10.059,578.478,16.158,542.166
	c6.1-36.313,11.646-69.744,28.305-92.184c3.976-5.47,2.765-13.123-2.705-17.1c-0.238-0.174-0.484-0.339-0.736-0.495
	C19.686,420.082-21.128,407.229-67.611,406.763z"/>
</svg>