<svg xmlns="http://www.w3.org/2000/svg" viewBox="0 0 512 512" width="48" height="48" fill="url(#gradient)">
	<defs>
		<linearGradient id="gradient" x1="0%" y1="0%" x2="100%" y2="0%">
			<stop offset="0%" stop-color="#2b70a8" />
			<stop offset="50%" stop-color="#298057" />
			<stop offset="100%" stop-color="#2b70a8" />
		</linearGradient>
	</defs>
	<path fill-rule="evenodd" clip-rule="evenodd" d="M114.502 347.584C109.974 352.168 106.946 358.048 105.827 364.429L94.713 427.813C92.6517 439.568 102.774 449.814 114.387 447.728L177.003 436.478C183.309 435.346 189.117 432.28 193.645 427.698L406.845 211.885C419.051 199.526 419.051 179.493 406.845 167.134L371.909 131.772C359.702 119.415 339.909 119.415 327.701 131.772L114.502 347.584ZM132.209 369.17C132.369 368.258 132.801 367.418 133.448 366.763L294.397 203.842L335.646 245.597L174.698 408.518C174.051 409.173 173.222 409.611 172.322 409.773L123.553 418.536L132.209 369.17ZM354.594 226.419L387.898 192.706C389.642 190.941 389.642 188.078 387.898 186.314L352.963 150.95C351.219 149.185 348.392 149.185 346.648 150.95L313.342 184.662L354.594 226.419Z"/>
	<path fill-rule="evenodd" clip-rule="evenodd" d="M166.278 193.79C166.48 193.304 166.882 192.931 167.378 192.77L213.557 177.739C215.21 177.202 215.21 174.835 213.557 174.296L167.378 159.267C166.882 159.105 166.48 158.732 166.278 158.246L149.045 116.7C148.432 115.223 146.364 115.223 145.751 116.7L128.518 158.246C128.316 158.732 127.914 159.105 127.418 159.267L81.2395 174.296C79.5869 174.834 79.5869 177.202 81.2395 177.739L127.418 192.77C127.914 192.931 128.316 193.304 128.518 193.79L145.751 235.336C146.364 236.813 148.432 236.813 149.045 235.336L166.278 193.79Z"/>
	<path fill-rule="evenodd" clip-rule="evenodd" d="M257.352 134.703C257.533 134.205 257.922 133.812 258.413 133.629L285.731 123.468C287.291 122.888 287.291 120.654 285.731 120.074L258.413 109.913C257.922 109.73 257.533 109.337 257.352 108.839L247.315 81.1846C246.742 79.6051 244.536 79.6051 243.962 81.1846L233.925 108.839C233.744 109.337 233.357 109.73 232.864 109.913L205.547 120.074C203.987 120.654 203.987 122.888 205.547 123.468L232.864 133.629C233.357 133.812 233.744 134.205 233.925 134.703L243.962 162.357C244.536 163.938 246.742 163.938 247.315 162.357L257.352 134.703Z"/>
</svg>