<svg xmlns="http://www.w3.org/2000/svg" viewBox="0 0 176 170" width="176px" height="170px">
	<path opacity="0.75" d="M0.5,117.5c9.896,0.625,17.271,1.813,26,4c1.697-5.924,3.697-11.757,6-17.5
	c-12.868-35.371-11.868-68.204,3-102.5c1.5-1.5,2.625-1.5,4,0c6.415,7.154,11.581,13.154,15.5,22
	c5.366,15.771,11.25,30.417,17.583,46.25c0.494,1.634,1.083,3.333,1.917,4.75c9.24-0.967,18.407-1.3,27.5-1
	c6.973-15.247,12.973-30.914,18-47c4.139-9.941,9.639-16.941,16.5-25c1.25-0.938,2-1.5,4,0c8.523,17.108,12.523,33.275,12,52.5
	c1.25,17.654-2.083,34.32-10,50c4.055,6.283,6.889,13.116,8.5,20.5c7.975-3.158,16.143-5.825,24.5-8c0,0.667,0-0.667,0,0
	c-8,4.667-16.085,7.695-24,10.5c-1.57,2.753-1.904,4.586-1,7.5c7.309,1.316,14.641,2.482,22,3.5c-7.018,0.675-14.018,0.509-21-0.5
	c-4.041,0.87-6.708,3.37-8,7.5c6.657,2.102,12.991,4.768,19,8c-6.959-1.823-13.959-3.49-21-5c-12.057,11.844-26.391,19.011-43,21.5
	c-6,0.5-13,0.5-21,0c-17.316-3.158-32.316-10.825-45-23c-5.479,2.288-11.145,3.455-17,3.5c5.094-2.421,10.428-3.921,16-4.5
	c-1.296-3.271-2.629-6.605-4-10c-7.333-0.667-14.667-1.333-22-2c7-0.667,14-1.333,21-2c-0.227-2.725-0.56-5.391-1-8L0.5,117.5z"/>
	<path fill="#FFFFFF" d="M112.5,75.5c4.593-18.945,10.093-37.612,16.5-56c2.591-5.519,5.425-8.852,8.5-14
	c9.861,21.173,11.361,41.506,8.5,65c-0.783,10.131-4.283,17.798-8.5,27c-5.914-6.414-6.768-8.805-14-14.5L112.5,75.5z"/>
	<path fill="#FFFFFF" d="M51.443,85.401C46.169,89.359,42.167,94.334,38,98.5c-2.573-10.243-5.333-17-7-31
	c-2.275-22.074-1.775-43.074,7.5-63c3.238,3.464,5.738,7.464,7.5,12c7.252,20.01,15.25,40.125,19.274,60.541L51.443,85.401z"/>
	<path fill="#FFFFFF" d="M57.5,92.5c12.5-0.417,20,8.563,20,21.5c-1.75,11.063-9.079,16.389-20.5,16.5
	c-10.328,0.006-15.828-5.161-16.5-15.5C40.759,103.281,46.333,95.027,57.5,92.5z"/>
	<path fill="#FFFFFF" d="M112.5,95.5c16.333-3,25,8.75,23,23c-3.5,11.167-10.854,14.768-22,12.5c-12.417-4.75-17.167-16.73-9.5-29.5
	C106.583,98.667,110.083,96.334,112.5,95.5z"/>
	<path fill="#FFFFFF" d="M83.112,126.909c3.072-0.316,8.072,0.016,11,1C90.167,136.083,84.833,133.917,83.112,126.909z"/>
	<path d="M117.5,100.5c2.411-0.363,3.911,0.637,4.5,3c0.193,5.25,0.693,10.417,1.5,15.5c-2.759,4.248-5.592,4.414-8.5,0.5
	c-0.667-4.667-0.667-9.333,0-14C115.366,103.548,116.199,101.882,117.5,100.5z"/>
	<path d="M58.5,101.5c2.252,0.416,3.752,1.749,4.5,4c0.851,5.753,0.518,11.42-1,17c-2.141,2.824-3.974,2.658-5.5-0.5
	c-2.465-6.093-2.631-12.26-0.5-18.5C57,102.188,57.563,101.875,58.5,101.5z"/>
</svg>